<?xml version="1.0" encoding="UTF-8" standalone="no"?>
<svg width="99px" height="155px" viewBox="0 0 99 155" version="1.1" xmlns="http://www.w3.org/2000/svg" xmlns:xlink="http://www.w3.org/1999/xlink">
    <!-- Generator: Sketch 39.1 (31720) - http://www.bohemiancoding.com/sketch -->
    <title>S</title>
    <desc>Created with Sketch.</desc>
    <defs></defs>
    <g id="Website" stroke="none" stroke-width="1" fill="none" fill-rule="evenodd">
        <g id="Manifesto" transform="translate(-332.000000, -1038.000000)" fill="#FFFFFF">
            <g transform="translate(100.000000, 1038.000000)" id="Letters">
                <g transform="translate(213.000000, 0.000000)">
                    <path d="M19.1051083,135.589754 C19.0350358,135.449608 19,135.27443 19,135.064212 C19,134.223341 19.3503576,133.102197 20.0510834,131.700745 L27.8291002,118.351987 C28.5998986,116.950535 29.7911145,116.144713 31.4027837,115.934495 C33.0144529,115.724277 34.2757403,116.039599 35.1866838,116.88047 C38.9005302,119.683373 42.0362309,121.890626 44.5938799,123.502295 C47.1515288,125.113964 50.5499977,126.63802 54.7893885,128.074508 C59.0287792,129.510995 63.32066,130.229229 67.6651596,130.229229 C73.200893,130.229229 77.8431314,128.617583 81.5920142,125.394245 C85.3408969,122.170907 87.2153102,118.246901 87.2153102,113.622111 C87.2153102,108.296596 84.9905393,103.619322 80.5409308,99.5901485 C76.0913223,95.5609755 69.2067952,91.6544881 59.8871428,87.870569 C54.2112642,85.5581741 49.2011503,83.1231886 44.8566507,80.5655397 C40.5121511,78.0078907 36.2903418,74.87219 32.1910962,71.1583436 C28.0918506,67.4444971 24.938632,63.0650269 22.7313459,58.0198016 C20.5240598,52.9745762 19.4204333,47.4038901 19.4204333,41.3075761 C19.4204333,36.3324233 20.3663989,31.4799703 22.2583584,26.7500716 C24.1503179,22.0201728 26.9706967,17.6231847 30.7195795,13.5589754 C34.4684622,9.49476605 39.5486477,6.21892233 45.9602882,3.73134593 C52.3719288,1.24376954 59.6768851,0 67.8753763,0 C72.9906743,0 78.0533418,0.560572187 83.0635309,1.68173338 C88.07372,2.80289457 92.4707081,4.25687868 96.2546271,6.04372933 C100.038546,7.83057998 103.051622,9.37215349 105.293944,10.6684961 C107.536266,11.9648387 109.428198,13.2086083 110.969794,14.3998421 C112.020883,15.0304952 112.686562,16.1166038 112.966853,17.6582005 C113.247143,19.1997971 113.001892,20.4961203 112.231094,21.5472089 L104.032644,33.7397759 C103.1217,35.1412274 101.983038,36.1222287 100.616623,36.6828093 C99.2502078,37.2433899 97.8662952,37.1382826 96.4648438,36.3674843 C96.1845535,36.1572666 95.2736236,35.5791765 93.732027,34.6331968 C92.1904304,33.687217 91.2444648,33.1091269 90.8941019,32.8989092 C90.5437391,32.6886915 89.667845,32.1631551 88.2663935,31.3222842 C86.864942,30.4814133 85.8839407,29.9208411 85.3233601,29.6405508 C84.7627795,29.3602605 83.8343318,28.9047956 82.5379892,28.2741424 C81.2416466,27.6434893 80.2431274,27.2055422 79.5424016,26.9602882 C78.8416759,26.7150342 77.8781924,26.3821945 76.6519224,25.961759 C75.4256523,25.5413236 74.3220258,25.2610375 73.3410098,25.1208923 C72.3599938,24.9807472 71.291403,24.8406041 70.1352055,24.700459 C68.9790081,24.5603138 67.80531,24.4902423 66.6140763,24.4902423 C60.72798,24.4902423 56.1032595,25.9442264 52.7397759,28.8522383 C49.3762923,31.7602501 47.6945758,35.3514157 47.6945758,39.6258427 C47.6945758,44.6009955 49.6916142,48.94543 53.6857509,52.6592764 C57.6798877,56.3731229 64.1264678,60.0518778 73.0256848,63.6956517 C76.3891684,65.0270306 79.4197617,66.3233538 82.1175559,67.5846602 C84.81535,68.8459665 87.7758718,70.3700221 90.9992103,72.1568728 C94.2225487,73.9437234 97.0604454,75.765583 99.5129855,77.6225063 C101.965526,79.4794295 104.400511,81.6691646 106.818015,84.1917773 C109.235519,86.7143899 111.232557,89.3420721 112.80919,92.0749025 C114.385823,94.8077329 115.64711,97.9083978 116.59309,101.37699 C117.53907,104.845583 118.012053,108.50682 118.012053,112.360811 C118.012053,123.922786 113.422368,133.907978 104.242861,142.316687 C95.0633534,150.725396 83.1511944,154.929688 68.5060263,154.929688 C49.8667215,154.929688 34.1006288,149.359001 21.2072751,138.217462 C20.0160413,137.306519 19.3153261,136.430625 19.1051083,135.589754 L19.1051083,135.589754 Z" id="S"></path>
                </g>
            </g>
        </g>
    </g>
</svg>