<?xml version="1.0" encoding="UTF-8"?>
<svg width="180px" height="180px" viewBox="0 0 180 180" version="1.1" xmlns="http://www.w3.org/2000/svg" xmlns:xlink="http://www.w3.org/1999/xlink" id='faviconGroup'>
<style>
        path {
            fill: #222;
        }
        
        @media (prefers-color-scheme: dark) {
            path {
                fill: #FFF;
            }
        }
    </style>
    <title>favicon</title>
    <g class="favicons" id="favicon" stroke="none" stroke-width="1" fill="none" fill-rule="evenodd">
        <path d="M46.2436434,14.5894794 C73.010067,-0.863159784 105.989933,-0.863159784 132.756357,14.5894793 C159.523137,30.0423244 176.008367,58.5997551 175.999997,89.498917 C176.008367,120.400245 159.523137,148.957676 132.756357,164.41052 C105.989933,179.86316 73.010067,179.86316 46.2436434,164.410521 C19.4768632,148.957676 2.99163302,120.400245 2.99999696,89.5010831 C2.99163302,58.5997552 19.4768632,30.0423244 46.2436434,14.5894794 Z M128.026124,21.101286 C103.867188,7.49547221 74.2918534,7.63430704 50.2434565,21.5177905 C25.9525057,35.5413038 10.9924069,61.4567434 10.999997,89.5010831 C10.9924069,117.543257 25.9525057,143.458696 50.2434565,157.482209 C74.5347665,171.50593 104.465233,171.50593 128.756544,157.482209 C153.047494,143.458697 168.007593,117.543257 167.999997,89.498917 C168.007593,61.4567433 153.047494,35.5413038 128.756544,21.5177905 L128.756544,21.5177905 Z M144.27828,59.6829312 C160.628874,88.0029917 150.141371,124.233053 120.873746,141.76659 C91.713994,159.235502 54.3727355,151.019244 36.9835875,123.195322 C35.812785,121.321952 36.3823289,118.854162 38.2556994,117.68336 C40.1290698,116.512557 42.5968595,117.082101 43.7676619,118.955472 C58.8084663,143.02187 91.2838338,150.167478 116.762443,134.903851 C142.365978,119.565382 151.465244,88.1311182 137.350076,63.6829312 C136.245507,61.7697607 136.901007,59.3233991 138.814178,58.2188296 C140.727348,57.1142601 143.17371,57.7697607 144.27828,59.6829312 Z" id="stroke" fill-rule="evenodd"></path>
    </g>
</svg>