<svg height="29" viewBox="0 0 30 29" width="30" xmlns="http://www.w3.org/2000/svg"><g fill="none" fill-rule="evenodd" transform="translate(1 1)"><path d="m14 27c7 0 14-5.2680135 14-13s-6.2680135-14-14-14-14 6.2680135-14 14 7 13 14 13z" stroke="#333" stroke-width="2"/><circle cx="7.5" cy="14.5" fill="#333" r="2.5"/><circle cx="20.5" cy="14.5" fill="#333" r="2.5"/><path d="m0 14c0-3.8659932 3.13400675-7 7-7 3.8659932 0 7 3.1340068 7 7m0 0c0-3.8659932 3.1340068-7 7-7s7 3.1340068 7 7" stroke="#333" stroke-width="2"/><g fill="#333"><rect height="8" rx=".5" width="2" x="13" y="12"/><rect height="2" rx=".5" width="4" x="12" y="19"/></g></g></svg>