<?xml version="1.0" encoding="UTF-8" standalone="no"?>
<svg width="12px" height="12px" viewBox="0 0 12 12" version="1.1" xmlns="http://www.w3.org/2000/svg" xmlns:xlink="http://www.w3.org/1999/xlink">
    <!-- Generator: Sketch 39.1 (31720) - http://www.bohemiancoding.com/sketch -->
    <title>dribbble-icon</title>
    <desc>Created with Sketch.</desc>
    <defs></defs>
    <g id="Website" stroke="none" stroke-width="1" fill="none" fill-rule="evenodd">
        <g id="Manifesto" transform="translate(-285.000000, -2974.000000)">
            <g id="Footer" transform="translate(28.000000, 2578.000000)">
                <g transform="translate(251.000000, 283.000000)" id="Contact">
                    <g>
                        <g>
                            <g transform="translate(0.000000, 113.000000)">
                                <g id="dribbble-icon" transform="translate(6.000000, 0.000000)">
                                    <path d="M11.393191,4.94345641 C11.3246604,4.60578223 11.2209384,4.27366394 11.0869642,3.95636134 C10.9560769,3.64523194 10.7924678,3.3452143 10.6029282,3.06495091 C10.4152408,2.7871568 10.1997707,2.52541302 9.96269183,2.28836204 C9.72499559,2.05069375 9.46383842,1.83524899 9.18539425,1.64758363 C8.9050979,1.457449 8.60504498,1.29509377 8.29387899,1.16298724 C7.97653907,1.02964607 7.64438173,0.925318949 7.30728524,0.857413722 C6.96154525,0.786421894 6.60592697,0.75 6.2503087,0.75 C5.89407303,0.75 5.53845475,0.786421894 5.19271476,0.857413722 C4.85561827,0.925318949 4.52346093,1.02964607 4.20612101,1.16298724 C3.89495502,1.29509377 3.5949021,1.457449 3.31398836,1.64758363 C3.03616158,1.83524899 2.77500441,2.05069375 2.53730817,2.28836204 C2.29961192,2.52541302 2.08475922,2.7871568 1.89707179,3.06495091 C1.7069148,3.3452143 1.54392309,3.64523194 1.41241842,3.95636134 C1.27844417,4.27366394 1.17533957,4.60578223 1.10619157,4.94345641 C1.03580878,5.2879211 1,5.64411488 1,5.99969134 C1,6.35588512 1.03580878,6.7120789 1.10619157,7.05777824 C1.17533957,7.39421777 1.27844417,7.72695338 1.41241842,8.04363866 C1.54392309,8.35476806 1.7069148,8.65540302 1.89707179,8.93628373 C2.08475922,9.21407784 2.29961192,9.47458698 2.53730817,9.71225528 C2.77500441,9.94992357 3.03616158,10.164751 3.31398836,10.3524164 C3.5949021,10.542551 3.89495502,10.7055235 4.20612101,10.8370128 C4.52346093,10.9709713 4.85561827,11.0734464 5.19271476,11.1425863 C5.53845475,11.2141954 5.89407303,11.25 6.2503087,11.25 C6.60592697,11.25 6.96154525,11.2141954 7.30728524,11.1425863 C7.64438173,11.0734464 7.97653907,10.9709713 8.29387899,10.8370128 C8.60504498,10.7055235 8.9050979,10.542551 9.18539425,10.3524164 C9.46383842,10.164751 9.72499559,9.94992357 9.96269183,9.71225528 C10.1997707,9.47458698 10.4152408,9.21407784 10.6029282,8.93628373 C10.7924678,8.65540302 10.9560769,8.35476806 11.0869642,8.04363866 C11.2209384,7.72695338 11.3246604,7.39421777 11.393191,7.05777824 C11.4641912,6.7120789 11.5,6.35588512 11.5,5.99969134 C11.5,5.64411488 11.4641912,5.2879211 11.393191,4.94345641 L11.393191,4.94345641 Z M10.7325807,5.95524428 C10.6677545,5.94104592 9.15020286,5.61448351 7.60980773,5.80832206 C7.5777033,5.73177435 7.54559887,5.65460932 7.51287705,5.57744429 C7.41903334,5.35767829 7.3190157,5.14038156 7.21467631,4.92678876 C8.98535897,4.20390676 9.70400423,3.16433947 9.71264773,3.15199306 C10.3411536,3.91623552 10.722085,4.89160151 10.7325807,5.95524428 L10.7325807,5.95524428 Z M9.21132475,2.63529602 C9.20021168,2.65258099 8.56182748,3.62486037 6.86893632,4.25884826 C6.10275181,2.85074078 5.26062798,1.73215651 5.19333216,1.64326239 C5.53228083,1.5611588 5.88604692,1.51671174 6.2503087,1.51671174 C7.38507673,1.51671174 8.42106192,1.94019343 9.21132475,2.63529602 L9.21132475,2.63529602 Z M5.17604516,1.64696631 C5.17604516,1.64758363 5.17542777,1.64758363 5.17542777,1.64758363 C5.17542777,1.64758363 5.16987123,1.64881827 5.16184512,1.65067023 C5.16616687,1.64943559 5.17110602,1.64881827 5.17604516,1.64696631 L5.17604516,1.64696631 Z M4.33700829,1.94513199 C4.396278,2.02538362 5.22605398,3.14890646 6.00211678,4.5286172 C3.84926795,5.10087307 1.98041983,5.07803222 1.8618804,5.07618026 C2.15328982,3.68720971 3.0861704,2.53590746 4.33700829,1.94513199 L4.33700829,1.94513199 Z M1.76618451,5.99969134 C1.76618451,5.95215768 1.76865408,5.90524134 1.76988887,5.858325 C1.84891515,5.86017697 4.06473805,5.9101799 6.37316987,5.21939855 C6.50158758,5.47064789 6.62444876,5.72621847 6.73681425,5.98117173 C6.67754454,5.99783938 6.61889222,6.01574167 6.5602399,6.03487859 C4.14067737,6.81702334 2.91330041,8.99369451 2.91330041,8.99369451 C2.91330041,8.99369451 2.91515258,8.99554648 2.91515258,8.9961638 C2.20082907,8.20167264 1.76618451,7.15161091 1.76618451,5.99969134 L1.76618451,5.99969134 Z M6.2503087,10.4832883 C5.16493209,10.4832883 4.16969483,10.0974631 3.39363203,9.45606738 C3.45290175,9.50360103 3.49426707,9.53446705 3.49426707,9.53446705 C3.49426707,9.53446705 4.3536779,7.66028279 7.01278885,6.73368511 C7.02266714,6.72998119 7.03254542,6.72689459 7.0430411,6.72380798 C7.67401658,8.36341055 7.93393897,9.73633077 8.00061739,10.1283291 C7.46286823,10.3567376 6.8707885,10.4832883 6.2503087,10.4832883 L6.2503087,10.4832883 Z M8.75568883,9.71842848 C8.71000176,9.44804221 8.47107074,8.13191546 7.88269536,6.51638838 C9.33048157,6.28489329 10.5844064,6.68183021 10.6770153,6.7120789 C10.4775975,7.96091775 9.76203916,9.03875889 8.75568883,9.71842848 L8.75568883,9.71842848 Z" id="Shape" fill="#FFFFFF"></path>
                                    <rect id="Rectangle-58" fill="#262928" x="4.5" y="2.5" width="7.5" height="0.875"></rect>
                                    <rect id="Rectangle-58" fill="#262928" x="0" y="7.75" width="2.75" height="0.875"></rect>
                                </g>
                            </g>
                        </g>
                    </g>
                </g>
            </g>
        </g>
    </g>
</svg>