<?xml version="1.0" encoding="UTF-8" standalone="no"?>
<svg width="12px" height="12px" viewBox="0 0 12 12" version="1.1" xmlns="http://www.w3.org/2000/svg" xmlns:xlink="http://www.w3.org/1999/xlink">
    <!-- Generator: Sketch 39.1 (31720) - http://www.bohemiancoding.com/sketch -->
    <title>github-icon</title>
    <desc>Created with Sketch.</desc>
    <defs></defs>
    <g id="Website" stroke="none" stroke-width="1" fill="none" fill-rule="evenodd">
        <g id="Manifesto" transform="translate(-448.000000, -2974.000000)">
            <g id="Footer" transform="translate(28.000000, 2578.000000)">
                <g transform="translate(251.000000, 283.000000)" id="Contact">
                    <g>
                        <g>
                            <g transform="translate(0.000000, 113.000000)">
                                <g id="github-icon" transform="translate(169.000000, 0.000000)">
                                    <path d="M0.75,6.1331898 C0.75,8.51117837 2.25414377,10.5289658 4.34034961,11.2407761 C4.60301882,11.2903451 4.69873999,11.1241238 4.69873999,10.9813652 C4.69873999,10.8534773 4.69422788,10.5150865 4.69164953,10.0659916 C3.23133767,10.3911641 2.92322508,9.34426748 2.92322508,9.34426748 C2.6844056,8.72234217 2.34019614,8.55678182 2.34019614,8.55678182 C1.86352405,8.22268699 2.37629301,8.22962664 2.37629301,8.22962664 C2.90324289,8.26762952 3.1804153,8.78446861 3.1804153,8.78446861 C3.64903005,9.606983 4.40932042,9.36938242 4.70840879,9.23158069 C4.75610823,8.88360654 4.89179379,8.64666688 5.04166027,8.51183929 C3.87592468,8.37602032 2.65024249,7.91436801 2.65024249,5.85163807 C2.65024249,5.26375012 2.85489886,4.7832616 3.19072869,4.40686792 C3.13690568,4.27071849 2.95674361,3.72347709 3.24229565,2.98258627 C3.24229565,2.98258627 3.68319316,2.83751443 4.68584825,3.53412364 C5.1048298,3.41482766 5.55378465,3.35501444 6.00016115,3.35303168 C6.44621535,3.35501444 6.8951702,3.41482766 7.31479634,3.53412364 C8.31680684,2.83751443 8.75705976,2.98258627 8.75705976,2.98258627 C9.04325639,3.72347709 8.86309432,4.27071849 8.80927131,4.40686792 C9.14574573,4.7832616 9.34879063,5.26375012 9.34879063,5.85163807 C9.34879063,7.91932491 8.12149698,8.37436803 6.95189386,8.50787378 C7.14043556,8.67409504 7.30802818,9.00257207 7.30802818,9.50454047 C7.30802818,10.2242819 7.3019046,10.8048997 7.3019046,10.9813652 C7.3019046,11.1254457 7.3963366,11.2926583 7.66287332,11.2401152 C9.7471454,10.526983 11.25,8.51084791 11.25,6.1331898 C11.25,3.16004317 8.8991912,0.75 5.99951656,0.75 C3.1008088,0.75 0.75,3.16004317 0.75,6.1331898 Z" id="Shape" fill="#FFFFFF"></path>
                                    <rect id="Rectangle-55" fill="#262928" x="6" y="0.75" width="4.375" height="0.875"></rect>
                                    <rect id="Rectangle-55" fill="#262928" x="6" y="6" width="5" height="0.875"></rect>
                                    <rect id="Rectangle-55" fill="#262928" x="1" y="9.5" width="9.625" height="0.875"></rect>
                                    <rect id="Rectangle-55" fill="#262928" x="0.75" y="4.25" width="3.5" height="0.875"></rect>
                                    <rect id="Rectangle-55" fill="#FFFFFF" x="9.5" y="6" width="1.75" height="0.875"></rect>
                                    <rect id="Rectangle-55" fill="#FFFFFF" x="7.75" y="0.75" width="1.75" height="0.875"></rect>
                                    <rect id="Rectangle-55" fill="#FFFFFF" x="7.75" y="9.5" width="1.75" height="0.875"></rect>
                                </g>
                            </g>
                        </g>
                    </g>
                </g>
            </g>
        </g>
    </g>
</svg>