<?xml version="1.0" encoding="UTF-8" standalone="no"?>
<svg width="59px" height="55px" viewBox="0 0 59 55" version="1.1" xmlns="http://www.w3.org/2000/svg" xmlns:xlink="http://www.w3.org/1999/xlink">
    <!-- Generator: Sketch 39.1 (31720) - http://www.bohemiancoding.com/sketch -->
    <title>Monogram white</title>
    <desc>Created with Sketch.</desc>
    <defs></defs>
    <g id="Branding" stroke="none" stroke-width="1" fill="none" fill-rule="evenodd">
        <g id="Monogram-white" transform="translate(-30.000000, -29.000000)">
            <g transform="translate(30.000000, 29.000000)">
                <path d="M1,32.8056 L1.69895924,32.8056 L8.96630371,47.2746 C9.07558708,47.493 9.40343721,47.766 9.84057071,47.766 L17.1079152,47.766 C18.0368239,47.766 18.4193157,46.8924 18.0368239,46.1826 L10.5509127,32.3142 C15.3047395,30.4032 18.6378824,26.3628 18.6378824,21.3396 C18.6378824,14.8422 13.282997,9.546 6.72599451,9.546 L1.07120614,9.546 C1.07120613,9.546 1,32.8056 1,32.8056 Z M1.05059383,25.8714 C1.12179997,25.8714005 1.12179996,17.3538 1.12179997,17.3538 L6.01565257,17.3538 C8.25596177,17.3538 10.1684208,19.2102 10.1684208,21.5034 C10.1684208,23.7966 8.25596177,25.8714 6.01565257,25.8714 L1.05059383,25.8714 Z M24.2405937,28.7106 C24.2405937,39.6306 32.9832637,48.2574 43.8569596,48.2574 C51.7800043,48.2574 57.4080981,44.7084 57.4080981,44.7084 C57.6266649,44.5446 57.8452316,44.1078 57.8452316,43.8348 L57.79059,29.1474 C57.79059,28.6014 57.3534565,28.11 56.8070396,28.11 L45.8240603,28.11 C45.2230018,28.11 44.7858683,28.5468 44.7858683,29.1474 L44.7858683,34.5528 C44.7858683,35.0988 45.2230018,35.5356 45.8240603,35.5356 L49.2664867,35.5356 L49.2664867,38.7024 C47.627236,39.3576 45.9879854,39.576 44.4033765,39.576 C38.4474325,39.576 33.5843223,34.662 33.5843223,28.7106 C33.5843223,22.7046 38.3927908,17.6814 44.3487348,17.6814 C47.0261775,17.6814 49.4304117,18.3912 51.5067959,20.3022 C51.9439294,20.6298 52.5449879,20.6298 52.9821214,20.2476 L57.2988148,15.6612 C57.7359483,15.2244 57.6813066,14.5692 57.1895314,14.187 C53.4738966,10.9656 48.4468613,9.0546 43.8569596,9.0546 C32.9832637,9.0546 24.2405937,17.7906 24.2405937,28.7106 L24.2405937,28.7106 Z" id="RAMON-GILABERT" fill="#FFFFFF"></path>
                <g id="Glitches" transform="translate(7.000000, 9.000000)">
                    <g id="Color-glitches" transform="translate(1.000000, 0.000000)" fill="#262928">
                        <rect id="Rectangle-69" x="0" y="3" width="9" height="2"></rect>
                        <rect id="Rectangle-69" x="1" y="19" width="9" height="2"></rect>
                        <rect id="Rectangle-69" x="1" y="30" width="9" height="2"></rect>
                        <rect id="Rectangle-69" x="5" y="29" width="2" height="2"></rect>
                        <rect id="Rectangle-69" x="0" y="37" width="12" height="2"></rect>
                        <rect id="Rectangle-73" x="39" y="0" width="3" height="2"></rect>
                        <rect id="Rectangle-73" x="16" y="12" width="13" height="2"></rect>
                        <rect id="Rectangle-73" x="42" y="2" width="3" height="2"></rect>
                        <rect id="Rectangle-73" x="28" y="33" width="8" height="2"></rect>
                        <rect id="Rectangle-73" x="36" y="35" width="8" height="2"></rect>
                        <rect id="Rectangle-73" x="47" y="18" width="3" height="4"></rect>
                    </g>
                    <g id="Other-color-glitches" transform="translate(0.000000, 3.000000)" fill="#FFFFFF">
                        <rect id="Rectangle-69" x="5" y="34" width="9" height="2"></rect>
                        <rect id="Rectangle-69" x="0" y="25" width="9" height="2"></rect>
                        <rect id="Rectangle-69" x="4" y="16" width="5" height="2"></rect>
                        <rect id="Rectangle-69" x="2" y="0" width="5" height="2"></rect>
                        <rect id="Rectangle-69" x="5" y="3" width="8" height="2"></rect>
                        <rect id="Rectangle-69" x="8" y="7" width="8" height="2"></rect>
                        <rect id="Rectangle-69" x="5" y="11" width="8" height="2"></rect>
                        <rect id="Rectangle-69" x="2" y="20" width="10" height="2"></rect>
                        <rect id="Rectangle-73" x="22" y="9" width="10" height="2"></rect>
                        <rect id="Rectangle-73" x="45" y="28" width="7" height="2"></rect>
                    </g>
                </g>
                <path d="M1.10160338,0.821360387 L1.10160338,54.8529346 L1.10160338,0.821360387 Z" id="Path-2" stroke="#FFFFFF" stroke-width="0.5" stroke-linecap="round"></path>
            </g>
        </g>
    </g>
</svg>