<?xml version="1.0" encoding="UTF-8" standalone="no"?>
<svg width="111px" height="90px" viewBox="0 0 111 90" version="1.1" xmlns="http://www.w3.org/2000/svg" xmlns:xlink="http://www.w3.org/1999/xlink">
    <!-- Generator: Sketch 39.1 (31720) - http://www.bohemiancoding.com/sketch -->
    <title>quotes</title>
    <desc>Created with Sketch.</desc>
    <defs></defs>
    <g id="Website" stroke="none" stroke-width="1" fill="none" fill-rule="evenodd" opacity="0.0700000003">
        <g id="Branding" transform="translate(-245.000000, -4888.000000)" fill="#FFFFFF">
            <g id="Project-quote" transform="translate(245.000000, 4888.000000)">
                <path d="M48.5088509,0 L48.5088509,44.3710342 L25.664358,44.3710342 C26.0304575,49.7160865 27.8060133,54.3471754 30.9910787,58.2644397 C34.1761441,62.1817041 40.0153431,66.1172144 48.5088509,70.0710887 L38.0750681,89.6207027 C24.4561677,83.6898913 14.827896,76.7890197 9.18996413,68.9178811 C3.55203225,61.0467424 0.733108598,50.3384935 0.733108598,36.792813 L0.733108598,0 L48.5088509,0 Z M111.001718,0 L111.001718,44.3710342 L88.1572255,44.3710342 C88.523325,49.7160865 90.2988808,54.3471754 93.4839462,58.2644397 C96.6690116,62.1817041 102.508211,66.1172144 111.001718,70.0710887 L100.567936,89.6207027 C86.9490352,83.6898913 77.3207635,76.7890197 71.6828316,68.9178811 C66.0448997,61.0467424 63.2259761,50.3384935 63.2259761,36.792813 L63.2259761,0 L111.001718,0 Z" id="quotes"></path>
            </g>
        </g>
    </g>
</svg>