<?xml version="1.0" encoding="UTF-8" standalone="no"?>
<svg width="13px" height="12px" viewBox="0 0 13 12" version="1.1" xmlns="http://www.w3.org/2000/svg" xmlns:xlink="http://www.w3.org/1999/xlink">
    <!-- Generator: Sketch 39.1 (31720) - http://www.bohemiancoding.com/sketch -->
    <title>twitter-icon</title>
    <desc>Created with Sketch.</desc>
    <defs></defs>
    <g id="Website" stroke="none" stroke-width="1" fill="none" fill-rule="evenodd">
        <g id="Manifesto" transform="translate(-609.000000, -2974.000000)">
            <g id="Footer" transform="translate(28.000000, 2578.000000)">
                <g transform="translate(251.000000, 283.000000)" id="Contact">
                    <g>
                        <g>
                            <g transform="translate(0.000000, 113.000000)">
                                <g id="twitter-icon" transform="translate(330.000000, 0.000000)">
                                    <path d="M11.5569202,2.41001011 C12.0760551,2.08240647 12.474394,1.56294237 12.66134,0.94413549 C12.1752803,1.24823054 11.6381699,1.46814965 11.0651083,1.5872093 C10.6078095,1.07153691 9.95421729,0.75 9.23087985,0.75 C7.84316488,0.75 6.71861243,1.93680485 6.71861243,3.40040445 C6.71861243,3.60819009 6.73946411,3.81066734 6.78260551,4.00404449 C4.69456184,3.89332659 2.84307683,2.83923155 1.60276164,1.23458038 C1.38633562,1.62740142 1.26266361,2.08240647 1.26266361,2.5677452 C1.26266361,3.48685541 1.70630099,4.29828109 2.38074485,4.77451972 C1.9687445,4.76086957 1.58119094,4.64029323 1.24181194,4.44312437 L1.24181194,4.47573306 C1.24181194,5.760364 2.10751599,6.83190091 3.2586723,7.07457027 C3.04727945,7.1367543 2.82582027,7.16784631 2.59573282,7.16784631 C2.43395257,7.16784631 2.27576745,7.15192113 2.12333451,7.12082912 C2.44258085,8.17340748 3.37083994,8.94084934 4.47094559,8.96132457 C3.6102747,9.67264914 2.52670658,10.0958038 1.34966543,10.0958038 C1.14690086,10.0958038 0.946293362,10.0844287 0.75,10.0594034 C1.86232905,10.8109201 3.18317485,11.25 4.60252685,11.25 C9.22584669,11.25 11.7524946,7.21107179 11.7524946,3.7082912 C11.7524946,3.59302326 11.7510565,3.47851365 11.7460234,3.36552073 C12.2371163,2.99165824 12.6642161,2.52451972 13,1.99292214 C12.5491724,2.20374115 12.0645507,2.3463094 11.5569202,2.41001011 Z" id="Shape" fill="#FFFFFF"></path>
                                    <rect id="Rectangle-56" fill="#262927" x="2" y="6.34999466" width="11" height="0.875"></rect>
                                    <rect id="Rectangle-56" fill="#262927" x="6" y="2.5" width="7" height="0.875"></rect>
                                    <rect id="Rectangle-57" fill="#FFFFFF" x="9.5" y="2.5" width="3.5" height="0.875"></rect>
                                    <rect id="Rectangle-57" fill="#FFFFFF" x="9.5" y="4.42499733" width="3.5" height="0.875"></rect>
                                    <rect id="Rectangle-57" fill="#FFFFFF" x="6" y="6.34999466" width="4.375" height="0.875"></rect>
                                    <rect id="Rectangle-57" fill="#FFFFFF" x="9.5" y="8.27500534" width="3.5" height="0.875"></rect>
                                    <rect id="Rectangle-57" fill="#FFFFFF" x="0.75" y="9.5" width="4.375" height="0.875"></rect>
                                </g>
                            </g>
                        </g>
                    </g>
                </g>
            </g>
        </g>
    </g>
</svg>