<?xml version="1.0" encoding="UTF-8" standalone="no"?>
<svg width="127px" height="134px" viewBox="0 0 127 134" version="1.1" xmlns="http://www.w3.org/2000/svg" xmlns:xlink="http://www.w3.org/1999/xlink">
    <!-- Generator: Sketch 39.1 (31720) - http://www.bohemiancoding.com/sketch -->
    <title>a-logo</title>
    <desc>Created with Sketch.</desc>
    <defs></defs>
    <g id="Website" stroke="none" stroke-width="1" fill="none" fill-rule="evenodd">
        <g id="Manifesto" transform="translate(-598.000000, -1562.000000)" fill="#FFFFFF">
            <g transform="translate(100.000000, 1038.000000)" id="Letters">
                <g transform="translate(213.000000, 0.000000)">
                    <path d="M285.593532,653.115543 L344.299172,526.02751 C344.975012,524.67583 346.050196,524 347.524757,524 L349.367948,524 C350.842508,524 351.917692,524.67583 352.593532,526.02751 L410.746215,653.115543 C410.991975,653.668503 411.114853,654.221455 411.114853,654.774415 C411.114853,655.450256 410.930536,656.033927 410.561896,656.525447 C409.947495,657.508487 408.93375,658 407.52063,658 L391.116228,658 C389.703108,658 388.612564,657.708164 387.844564,657.124484 C387.076564,656.540804 386.354655,655.573138 385.678814,654.221458 L376.370699,633.854195 L319.969048,633.854195 L310.660933,654.221458 C309.677892,656.740499 307.865439,658 305.223519,658 L288.819117,658 C287.405997,658 286.392252,657.508487 285.777852,656.525447 C285.409211,655.972487 285.224894,655.388816 285.224894,654.774415 C285.224894,654.221455 285.347772,653.668503 285.593532,653.115543 L285.593532,653.115543 L285.593532,653.115543 Z M329.185004,612.933975 L367.154743,612.933975 L348.262033,571.370014 L347.709076,571.370014 L329.185004,612.933975 L329.185004,612.933975 Z" id="a-logo"></path>
                </g>
            </g>
        </g>
    </g>
</svg>