<svg width="119" height="119" viewBox="0 0 119 119" version="1.1" xmlns="http://www.w3.org/2000/svg" xmlns:xlink="http://www.w3.org/1999/xlink"><title>dribbble</title><desc>Created with Sketch.</desc><g id="Page-1" stroke="none" stroke-width="1" fill="none" fill-rule="evenodd"><path d="M59,19 C36.9072531,19 19,36.9093402 19,59 C19,81.0906598 36.9072531,99 59,99 C81.0906598,99 99,81.0906598 99,59 C99,36.9093402 81.0906598,19 59,19 Z M92.7432098,58.5561508 C88.1699857,57.2352702 83.3365741,56.5268275 78.3382843,56.5268275 C75.3194601,56.5268275 72.360929,56.7851598 69.4835615,57.2809538 C68.5501794,55.0538231 67.5834044,52.9224655 66.6064258,50.8952293 C80.2697474,45.0512143 85.2406734,37.7861396 85.2406734,37.7861396 L85.2427605,37.7840525 C89.8472906,43.4720014 92.6411755,50.6890736 92.7432098,58.5561508 Z M59,25.2544712 C67.5880423,25.2544712 75.4300746,28.4629865 81.3865593,33.7485956 L81.3844722,33.7506826 C76.8342058,38.9947823 70.5317321,42.7345717 63.8023375,45.3992904 C57.3083175,33.3423135 51.1433582,26.1753309 51.1433582,26.1753309 C53.6643013,25.5730966 56.295627,25.2544712 59,25.2544712 Z M44.3865999,28.573369 C44.3865999,28.573369 50.2869657,36.1424596 56.699822,47.8056768 C41.2553061,52.2455606 25.9793786,52.0099541 25.9793786,52.0099541 L25.9772916,52.0099541 C28.1587387,41.6532399 35.0903467,33.046414 44.3865999,28.573369 Z M25.2523842,59 C25.2523842,58.7041005 25.2565583,58.4102881 25.2628195,58.1167075 L25.2649066,58.1167075 C39.6969639,58.1936971 50.9828861,56.2123763 59.6750497,53.4581456 C60.5729516,55.2520943 61.4689984,57.1167713 62.3439426,59.0417413 C50.3808836,62.9190451 40.3240111,71.027758 33.9403737,81.6033822 C28.539976,75.6195338 25.2523842,67.6940188 25.2523842,59 Z M59,92.7452969 C51.3080045,92.7452969 44.2200984,90.1721771 38.5425848,85.8408207 C44.2219536,75.8236024 53.5745575,68.1629128 64.7667936,64.6898041 C67.9669606,72.6007096 70.6358535,81.2866121 71.9066444,90.1870185 C67.9317124,91.8369596 63.5709051,92.7452969 59,92.7452969 Z M77.7446302,87.063841 C76.5737865,78.4008963 74.3944264,70.3441281 71.7651877,63.1105913 C73.9111548,62.8000823 76.1069795,62.6398421 78.3385162,62.6398421 C83.1888562,62.6398421 87.8620276,63.3939684 92.2476477,64.7962444 C90.6452453,74.0632787 85.261776,82.0344772 77.7446302,87.063841 Z" id="Shape" fill="#FFF" fill-rule="nonzero"/></g></svg>