<?xml version="1.0" encoding="UTF-8"?>
<svg width="119px" height="119px" viewBox="0 0 119 119" version="1.1" xmlns="http://www.w3.org/2000/svg" xmlns:xlink="http://www.w3.org/1999/xlink">
    <!-- Generator: Sketch 42 (36781) - http://www.bohemiancoding.com/sketch -->
    <title>github</title>
    <desc>Created with Sketch.</desc>
    <defs></defs>
    <g id="Page-1" stroke="none" stroke-width="1" fill="none" fill-rule="evenodd">
        <path d="M75.2415652,65.7158974 C71.5735217,65.7158974 68.5982174,69.8451282 68.5982174,74.9425641 C68.5982174,80.0410256 71.5735217,84.1723077 75.2415652,84.1723077 C78.9075652,84.1723077 81.8808261,80.0410256 81.8808261,74.9425641 C81.8818478,69.8451282 78.9075652,65.7158974 75.2415652,65.7158974 Z M98.3645435,41.6994872 C99.1206304,39.8266667 99.1584348,29.185641 95.1256304,19 C95.1256304,19 85.8717391,20.0184615 71.8708478,29.6625641 C68.936413,28.8492308 63.9666739,28.4420513 59,28.4420513 C54.0333261,28.4420513 49.0656304,28.8482051 46.1281304,29.6615385 C32.1272391,20.0184615 22.876413,19 22.876413,19 C18.842587,29.185641 18.8783478,39.8266667 19.6354565,41.6994872 C14.8956087,46.865641 12,53.0697436 12,61.5466667 C12,98.4 42.4570217,98.9907692 50.1456087,98.9907692 C51.8856304,98.9907692 55.3442174,98.9948718 59,99 C62.6557826,98.9948718 66.116413,98.9907692 67.8543913,98.9907692 C75.5429783,98.9907692 106,98.4 106,61.5466667 C106,53.0697436 103.104391,46.865641 98.3645435,41.6994872 Z M59.1440652,94.4605128 L58.8569565,94.4605128 C39.5879783,94.4605128 24.5827174,92.1507692 24.5827174,73.3528205 C24.5827174,68.8512821 26.1653913,64.6707692 29.9253913,61.2020513 C36.1998913,55.4215385 46.8116739,58.4830769 58.8569565,58.4830769 C58.9029348,58.4830769 58.9519783,58.4820513 59.0010217,58.48 C59.051087,58.4820513 59.0991087,58.4830769 59.145087,58.4830769 C71.1903696,58.4830769 81.8052174,55.4225641 88.0766522,61.2020513 C91.8366522,64.6707692 93.4193261,68.8512821 93.4193261,73.3528205 C93.4183043,92.1507692 78.4130435,94.4605128 59.1440652,94.4605128 Z M42.7584348,65.7158974 C39.0924348,65.7158974 36.1191739,69.8451282 36.1191739,74.9425641 C36.1191739,80.0410256 39.0924348,84.1723077 42.7584348,84.1723077 C46.4285217,84.1723077 49.4017826,80.0410256 49.4017826,74.9425641 C49.4007609,69.8451282 46.4275,65.7158974 42.7584348,65.7158974 Z" id="Shape" fill="#FFFFFF" fill-rule="nonzero"></path>
    </g>
</svg>