<?xml version="1.0" encoding="UTF-8"?>
<svg width="119px" height="119px" viewBox="0 0 119 119" version="1.1" xmlns="http://www.w3.org/2000/svg" xmlns:xlink="http://www.w3.org/1999/xlink">
    <!-- Generator: Sketch 42 (36781) - http://www.bohemiancoding.com/sketch -->
    <title>linkedin</title>
    <desc>Created with Sketch.</desc>
    <defs></defs>
    <g id="Page-1" stroke="none" stroke-width="1" fill="none" fill-rule="evenodd">
        <path d="M26.5066267,8.00000307 C32.2165001,8.00466426 36.9257163,12.7316583 36.9134064,18.4832914 C36.8997288,24.5058219 31.9134033,29.0449974 26.4363236,28.91421 C20.8810077,29.0269011 15.998906,24.3761311 16.0000002,18.4435342 C16.0000002,12.6897076 20.7275445,7.99561607 26.5066267,8.00000307 Z M32.5729398,94.9876615 L20.3393726,94.9876615 C18.7516706,94.9876615 17.4646034,93.6976088 17.4646034,92.1062241 L17.4646034,39.7961671 C17.4646034,38.2047823 18.7516706,36.9147297 20.3393726,36.9147297 L32.5729398,36.9147297 C34.1606418,36.9147297 35.4477091,38.2047823 35.4477091,39.7961671 L35.4477091,92.1064982 C35.4474355,93.6976088 34.1606418,94.9876615 32.5729398,94.9876615 Z M103,55.2883143 L102.999453,55.2883143 L102.999453,93.8037194 C102.999453,94.4645115 102.46493,95.0002741 101.805667,94.9999999 L86.1715618,94.9961613 C85.512846,94.9958871 84.9785969,94.4603987 84.9785969,93.7998808 L84.9785969,61.4983891 C84.9785969,58.7060627 83.8496433,56.1769563 82.0236765,54.3478509 C80.1733635,52.4921493 77.6060679,51.3548192 74.7742465,51.3868991 C69.2268636,51.4496881 64.8021426,56.0667329 64.8021426,61.6272573 L64.8021426,93.795768 C64.8021426,94.4565601 64.2676199,94.9923226 63.608357,94.9920485 L48.0128225,94.9882098 C47.3538332,94.9879356 46.8198576,94.4524473 46.8198576,93.7919294 L46.8198576,38.1107359 C46.8198576,37.4499439 47.3543803,36.9144555 48.0133696,36.9144555 L63.2762635,36.9144555 C63.9355265,36.9144555 64.4697756,37.450218 64.4697756,38.1107359 L64.4697756,44.531661 C64.4711434,44.5289191 64.5315986,44.5368705 64.6336339,44.552225 C64.9285241,44.0175592 65.2496754,43.4996189 65.5965407,43.0008716 C68.7774159,38.4252291 74.065744,35.431649 80.0516324,35.431649 L83.1892862,35.431649 C94.1305886,35.431649 103,44.3219074 103,55.2883143 Z" id="Combined-Shape" fill="#FFFFFF" fill-rule="nonzero"></path>
    </g>
</svg>