<svg width="119" height="119" viewBox="0 0 119 119" version="1.1" xmlns="http://www.w3.org/2000/svg" xmlns:xlink="http://www.w3.org/1999/xlink"><title>twitter</title><desc>Created with Sketch.</desc><g id="Page-1" stroke="none" stroke-width="1" fill="none" fill-rule="evenodd"><path d="M109,28.4652588 C105.356244,30.0714738 101.446546,31.1607905 97.3386868,31.6471127 C101.533091,29.1483951 104.743802,25.1850784 106.265525,20.4769904 C102.331077,22.7909635 97.9881732,24.4712051 93.3607244,25.3820534 C89.6551743,21.4494739 84.3843862,19 78.5382002,19 C67.3223878,19 58.2284465,28.0468479 58.2284465,39.1984635 C58.2284465,40.7800567 58.4078438,42.3247975 58.7543444,43.8019488 C41.8780521,42.95869 26.9133365,34.9150626 16.8976583,22.692476 C15.1468761,25.6712397 14.1508891,29.1421189 14.1508891,32.8471473 C14.1508891,39.8569779 17.7389979,46.0420563 23.1830362,49.6606668 C19.854722,49.5499488 16.724408,48.6391005 13.9839477,47.1250968 L13.9839477,47.3774308 C13.9839477,57.1627739 20.986915,65.3295106 30.2725478,67.1882205 C28.5712656,67.6436447 26.7772921,67.8959786 24.9213626,67.8959786 C23.609934,67.8959786 22.3416966,67.766754 21.0982093,67.5205353 C23.6840224,75.5519322 31.1819905,81.3923045 40.0656374,81.5524271 C33.1183172,86.9682732 24.3584205,90.1869794 14.8438903,90.1869794 C13.2045641,90.1869794 11.5898261,90.0884919 10,89.9100236 C18.9887941,95.6520692 29.6602674,99 41.1297273,99 C78.4890237,99 98.9102335,68.216063 98.9102335,41.5187128 L98.8421305,38.903162 C102.832225,36.0719687 106.284128,32.5148325 109,28.4652588 Z" id="Shape" fill="#FFF" fill-rule="nonzero"/></g></svg>