<svg xmlns="http://www.w3.org/2000/svg" width="1130.875" height="285.438" viewBox="0 0 1130.875 285.438">
  <metadata><?xpacket begin="﻿" id="W5M0MpCehiHzreSzNTczkc9d"?>
<x:xmpmeta xmlns:x="adobe:ns:meta/" x:xmptk="Adobe XMP Core 5.6-c138 79.159824, 2016/09/14-01:09:01        ">
   <rdf:RDF xmlns:rdf="http://www.w3.org/1999/02/22-rdf-syntax-ns#">
      <rdf:Description rdf:about=""/>
   </rdf:RDF>
</x:xmpmeta>
                                                                                                    
                                                                                                    
                                                                                                    
                                                                                                    
                                                                                                    
                                                                                                    
                                                                                                    
                                                                                                    
                                                                                                    
                                                                                                    
                                                                                                    
                                                                                                    
                                                                                                    
                                                                                                    
                                                                                                    
                                                                                                    
                                                                                                    
                                                                                                    
                                                                                                    
                                                                                                    
                           
<?xpacket end="w"?></metadata>
<defs>
    <style>
      .cls-1 {
        fill: #fff;
        fill-rule: evenodd;
        opacity: 0.34;
      }
    </style>
  </defs>
  <path id="designer" class="cls-1" d="M464.631,684.305H424.892v85.23a24.684,24.684,0,0,0-4.7-6.217,34.663,34.663,0,0,0-8.342-5.915,55.978,55.978,0,0,0-12.286-4.55,69.636,69.636,0,0,0-68.4,20.777,76.407,76.407,0,0,0-14.712,24.72,92,92,0,0,0,.152,62.027,76.77,76.77,0,0,0,15.015,24.871,67.816,67.816,0,0,0,22.9,16.379,71.813,71.813,0,0,0,29.425,5.915q15.165,0,25.936-6.066T425.8,886.613q0,5.161.455,10.01a52.372,52.372,0,0,0,1.062,7.279h38.525q-0.61-4.55-.91-11.981t-0.3-15.014v-192.6ZM362.555,798.047a36.985,36.985,0,0,1,52.327-.152q10.614,10.77,10.617,30.786,0,20.323-10.617,31.544a34.506,34.506,0,0,1-26.088,11.223q-16.082,0-26.543-11.223t-10.465-31.241Q351.786,808.967,362.555,798.047ZM527.118,812.3A29.7,29.7,0,0,1,529.7,801.99a30.885,30.885,0,0,1,6.522-9.4,34.3,34.3,0,0,1,10.314-6.976,33.675,33.675,0,0,1,13.954-2.73,38.362,38.362,0,0,1,14.712,2.578,31.409,31.409,0,0,1,10.314,6.673,26.015,26.015,0,0,1,6.067,9.4,36.713,36.713,0,0,1,2.275,10.767H527.118ZM597.8,851.126a36.26,36.26,0,0,1-11.679,16.379q-8.04,6.369-22.3,6.369a39.175,39.175,0,0,1-14.258-2.578,36.915,36.915,0,0,1-11.679-7.128A37.5,37.5,0,0,1,529.7,853.4a32.126,32.126,0,0,1-3.488-13.5H632.986q0-.6.3-4.4t0.3-8.037q0-36.091-19.414-56.719t-54.3-20.625a70.577,70.577,0,0,0-27.605,5.611,72.892,72.892,0,0,0-23.509,15.772,75.547,75.547,0,0,0-16.229,24.72,83.551,83.551,0,0,0-6.067,32.454q0,18.81,6.219,33.667a74.734,74.734,0,0,0,16.835,25.175A71.142,71.142,0,0,0,534.1,903.144a82.116,82.116,0,0,0,29.424,5.308,78.8,78.8,0,0,0,25.026-3.792A69.369,69.369,0,0,0,608.414,894.5a63.5,63.5,0,0,0,14.409-15.013,62.076,62.076,0,0,0,8.646-18.351Zm44.287,11.222a48.313,48.313,0,0,0,4.1,14.408,46.466,46.466,0,0,0,10.769,15.014A61,61,0,0,0,675.755,903.6q11.526,4.848,28.515,4.853,14.561,0,25.481-4.247a54.366,54.366,0,0,0,18.2-11.222,44.339,44.339,0,0,0,10.769-15.772,48.232,48.232,0,0,0,3.488-17.9A42.028,42.028,0,0,0,751.137,830.5q-11.076-12.433-33.216-16.986l-21.235-4.549a20.679,20.679,0,0,1-9.858-4.55,11.136,11.136,0,0,1-3.792-8.8q0-6.369,5.612-10.616a21.724,21.724,0,0,1,13.5-4.246,28.208,28.208,0,0,1,10.768,1.82,22.635,22.635,0,0,1,7.432,4.853,19.147,19.147,0,0,1,4.4,6.521,37.179,37.179,0,0,1,1.972,6.824l33.671-7.582a44.378,44.378,0,0,0-3.943-13.5,46.606,46.606,0,0,0-10.162-14.1,53.825,53.825,0,0,0-17.746-11.07q-10.922-4.394-26.7-4.4a61.179,61.179,0,0,0-22.3,3.943,58.428,58.428,0,0,0-17.594,10.464A47.41,47.41,0,0,0,650.274,780a43.629,43.629,0,0,0-4.246,18.957,41.989,41.989,0,0,0,10.01,27.752q10.011,11.987,31.851,16.834l19.718,4.55q8.795,1.82,12.437,5.611a12.5,12.5,0,0,1,3.64,8.948,13.667,13.667,0,0,1-4.853,10.464q-4.857,4.4-14.864,4.4-13.353,0-20.021-6.976a24.8,24.8,0,0,1-7.28-15.772ZM824.4,903.9V754.673H784.05V903.9H824.4ZM786.477,723.129a24.8,24.8,0,0,0,42.468-17.289,24.6,24.6,0,0,0-7.129-17.895,25.083,25.083,0,0,0-35.339,0A24.325,24.325,0,0,0,779.2,705.84,23.617,23.617,0,0,0,786.477,723.129Zm59.757,188.962a55.963,55.963,0,0,0,7.28,20.474,61.546,61.546,0,0,0,15.168,17.289,75.094,75.094,0,0,0,21.992,11.829,84.73,84.73,0,0,0,28.06,4.4q20.931,0,35.795-6.521A65.966,65.966,0,0,0,992.6,917.4a98.855,98.855,0,0,0,4.4-29.572V754.673H958.169v17.592q-3.946-7.578-14.257-13.952t-28.212-6.37a67.733,67.733,0,0,0-28.211,5.763,65.839,65.839,0,0,0-21.841,15.772,74.351,74.351,0,0,0-14.257,23.2,80.283,80.283,0,0,0,.152,57.022,71.314,71.314,0,0,0,14.56,22.9A65.786,65.786,0,0,0,888.1,891.77a69.341,69.341,0,0,0,27.6,5.459q16.381,0,26.695-5.914t14.864-13.194V889.04q0,21.839-10.314,31.7t-29.425,9.857q-14.561,0-23.661-7.886a33.465,33.465,0,0,1-11.223-20.322Zm50.659-59.6q-10.011-10.158-10.011-27.753a42.141,42.141,0,0,1,2.73-15.469,35.652,35.652,0,0,1,7.584-11.981,32.077,32.077,0,0,1,11.376-7.582,38.066,38.066,0,0,1,14.105-2.579,34.17,34.17,0,0,1,24.875,10.161q10.308,10.166,10.313,27.45t-9.858,27.6q-9.861,10.315-25.33,10.313Q906.9,862.652,896.893,852.491Zm170.777-34.426q0-13.038,7.28-21.99t20.63-8.948q14.565,0,21.08,8.493t6.52,21.232V903.9h40.35V809.876a81.7,81.7,0,0,0-3.19-23.052,50.737,50.737,0,0,0-9.85-18.8,48.313,48.313,0,0,0-16.84-12.588q-10.17-4.7-24.12-4.7a57.634,57.634,0,0,0-24.11,5.46,42.2,42.2,0,0,0-18.96,16.985v-18.5h-39.13V903.9h40.34V818.065Zm155.62-5.763a29.66,29.66,0,0,1,2.58-10.312,30.652,30.652,0,0,1,6.52-9.4,34.383,34.383,0,0,1,10.31-6.976,33.73,33.73,0,0,1,13.96-2.73,38.358,38.358,0,0,1,14.71,2.578,31.421,31.421,0,0,1,10.31,6.673,26.049,26.049,0,0,1,6.07,9.4,37.013,37.013,0,0,1,2.28,10.767h-66.74Zm70.68,38.824a36.262,36.262,0,0,1-11.68,16.379q-8.04,6.369-22.3,6.369a39.14,39.14,0,0,1-14.25-2.578,36.842,36.842,0,0,1-11.68-7.128,37.379,37.379,0,0,1-8.19-10.767,32.039,32.039,0,0,1-3.49-13.5h106.78q0-.6.3-4.4t0.3-8.037q0-36.091-19.41-56.719t-54.3-20.625a70.52,70.52,0,0,0-27.6,5.611,72.768,72.768,0,0,0-23.51,15.772,75.47,75.47,0,0,0-16.23,24.72,83.515,83.515,0,0,0-6.07,32.454q0,18.81,6.22,33.667a74.707,74.707,0,0,0,16.83,25.175,71.156,71.156,0,0,0,24.58,15.621,82.114,82.114,0,0,0,29.42,5.308,78.859,78.859,0,0,0,25.03-3.792,69.506,69.506,0,0,0,19.87-10.161,63.4,63.4,0,0,0,14.4-15.013,61.939,61.939,0,0,0,8.65-18.351ZM1442,754.067c-1.62-.2-3.19-0.351-4.7-0.455s-3.09-.152-4.7-0.152a71.242,71.242,0,0,0-10.77.91,51.881,51.881,0,0,0-11.83,3.336,39.668,39.668,0,0,0-11.23,7.128,35.417,35.417,0,0,0-8.64,11.981V754.673H1351V903.9h40.34V835.657q0-12.128,3.19-20.17a35.12,35.12,0,0,1,8.34-12.891A30.324,30.324,0,0,1,1415,795.62a50.887,50.887,0,0,1,14.87-2.123A62.067,62.067,0,0,1,1442,794.71V754.067Z" transform="translate(-311.125 -680.656)"/>
</svg>
