<svg xmlns="http://www.w3.org/2000/svg" width="1161.121" height="313.688" viewBox="0 0 1161.121 313.688">
  <metadata><?xpacket begin="﻿" id="W5M0MpCehiHzreSzNTczkc9d"?>
<x:xmpmeta xmlns:x="adobe:ns:meta/" x:xmptk="Adobe XMP Core 5.6-c138 79.159824, 2016/09/14-01:09:01        ">
   <rdf:RDF xmlns:rdf="http://www.w3.org/1999/02/22-rdf-syntax-ns#">
      <rdf:Description rdf:about=""/>
   </rdf:RDF>
</x:xmpmeta>
                                                                                                    
                                                                                                    
                                                                                                    
                                                                                                    
                                                                                                    
                                                                                                    
                                                                                                    
                                                                                                    
                                                                                                    
                                                                                                    
                                                                                                    
                                                                                                    
                                                                                                    
                                                                                                    
                                                                                                    
                                                                                                    
                                                                                                    
                                                                                                    
                                                                                                    
                                                                                                    
                           
<?xpacket end="w"?></metadata>
<defs>
    <style>
      .cls-1 {
        fill: #d5d5d5;
        fill-rule: evenodd;
        opacity: 0.5;
        mix-blend-mode: overlay;
      }
    </style>
  </defs>
  <path id="designer_copy" data-name="designer copy" class="cls-1" d="M465.9,647.569H422.232v93.666a27.1,27.1,0,0,0-5.167-6.833,38.082,38.082,0,0,0-9.168-6.5,61.426,61.426,0,0,0-13.5-5,76.526,76.526,0,0,0-75.176,22.833A83.946,83.946,0,0,0,303.052,772.9a101.126,101.126,0,0,0,.166,68.167,84.379,84.379,0,0,0,16.5,27.333,74.527,74.527,0,0,0,25.17,18,78.921,78.921,0,0,0,32.337,6.5q16.667,0,28.5-6.667t17.5-16.333q0,5.671.5,11a57.308,57.308,0,0,0,1.166,8h42.339q-0.672-5-1-13.167t-0.334-16.5V647.569Zm-112.18,125a40.649,40.649,0,0,1,57.507-.167Q422.9,784.238,422.9,806.235q0,22.337-11.668,34.667a37.923,37.923,0,0,1-28.67,12.333q-17.674,0-29.17-12.333t-11.5-34.333Q341.89,784.569,353.724,772.569Zm169.184,15.666a32.657,32.657,0,0,1,2.834-11.333,33.921,33.921,0,0,1,7.167-10.333,37.686,37.686,0,0,1,11.335-7.667,37.008,37.008,0,0,1,15.335-3,42.157,42.157,0,0,1,16.169,2.833,34.522,34.522,0,0,1,11.334,7.334A28.579,28.579,0,0,1,593.75,776.4a40.347,40.347,0,0,1,2.5,11.833H522.908ZM600.584,830.9a39.857,39.857,0,0,1-12.835,18q-8.837,7-24.5,7a43.053,43.053,0,0,1-15.668-2.833,40.558,40.558,0,0,1-12.835-7.834,41.205,41.205,0,0,1-9-11.833,35.3,35.3,0,0,1-3.834-14.833H639.255q0-.664.334-4.834t0.333-8.833q0-39.665-21.336-62.333T558.912,719.9a77.547,77.547,0,0,0-30.337,6.167A80.093,80.093,0,0,0,502.739,743.4,83.019,83.019,0,0,0,484.9,770.569q-6.673,16-6.668,35.666,0,20.673,6.834,37a82.143,82.143,0,0,0,18.5,27.667,78.2,78.2,0,0,0,27,17.167,90.247,90.247,0,0,0,32.337,5.833,86.6,86.6,0,0,0,27.5-4.167,76.284,76.284,0,0,0,21.836-11.166,69.826,69.826,0,0,0,15.835-16.5,68.226,68.226,0,0,0,9.5-20.167Zm37,12.333a53.083,53.083,0,0,0,4.5,15.834,51.072,51.072,0,0,0,11.834,16.5q8,7.671,20.67,13t31.337,5.333q16,0,28-4.667a59.731,59.731,0,0,0,20-12.333,48.739,48.739,0,0,0,11.835-17.333A53,53,0,0,0,769.6,839.9a46.193,46.193,0,0,0-12.168-31.667q-12.174-13.663-36.5-18.666l-23.336-5a22.732,22.732,0,0,1-10.834-5,12.237,12.237,0,0,1-4.167-9.667q0-7,6.167-11.667a23.877,23.877,0,0,1,14.835-4.666,30.992,30.992,0,0,1,11.835,2A24.887,24.887,0,0,1,723.6,760.9a21.061,21.061,0,0,1,4.834,7.167,40.807,40.807,0,0,1,2.167,7.5l37-8.334a48.794,48.794,0,0,0-4.334-14.833A51.2,51.2,0,0,0,752.1,736.9a59.159,59.159,0,0,0-19.5-12.167q-12-4.827-29.336-4.833a67.252,67.252,0,0,0-24.5,4.333,64.24,64.24,0,0,0-19.336,11.5,52.127,52.127,0,0,0-12.835,17,47.947,47.947,0,0,0-4.667,20.834,46.153,46.153,0,0,0,11,30.5q11,13.172,35,18.5l21.669,5q9.664,2,13.668,6.166a13.739,13.739,0,0,1,4,9.834,15.02,15.02,0,0,1-5.334,11.5q-5.337,4.836-16.336,4.833-14.673,0-22-7.667a27.247,27.247,0,0,1-8-17.333ZM826.275,888.9v-164H781.936v164h44.339ZM784.6,690.235a27.253,27.253,0,0,0,46.672-19,27.042,27.042,0,0,0-7.834-19.666,27.568,27.568,0,0,0-38.838,0,26.732,26.732,0,0,0-8,19.666A25.953,25.953,0,0,0,784.6,690.235ZM838.608,897.9a61.494,61.494,0,0,0,8,22.5,67.64,67.64,0,0,0,16.669,19,82.5,82.5,0,0,0,24.17,13,93.106,93.106,0,0,0,30.837,4.833q23,0,39.338-7.166t26.669-19a75.049,75.049,0,0,0,15.169-27.334,108.606,108.606,0,0,0,4.83-32.5V724.9H961.622v19.333q-4.337-8.328-15.668-15.333t-31-7a74.435,74.435,0,0,0-31,6.333,72.342,72.342,0,0,0-24,17.334,81.7,81.7,0,0,0-15.668,25.5,88.236,88.236,0,0,0,.167,62.666,78.366,78.366,0,0,0,16,25.167,72.293,72.293,0,0,0,24.17,16.667,76.2,76.2,0,0,0,30.337,6q18,0,29.337-6.5t16.335-14.5v12q0,24-11.335,34.833T916.95,918.235q-16,0-26-8.666a36.791,36.791,0,0,1-12.335-22.334Zm55.673-65.5q-11-11.165-11-30.5a46.316,46.316,0,0,1,3-17,39.15,39.15,0,0,1,8.334-13.167,35.263,35.263,0,0,1,12.5-8.333,41.848,41.848,0,0,1,15.5-2.833,37.55,37.55,0,0,1,27.337,11.166q11.33,11.172,11.335,30.167t-10.835,30.333q-10.837,11.337-27.837,11.334Q905.28,843.569,894.281,832.4ZM1070.3,794.569q0-14.328,8-24.167t22.67-9.833q15.99,0,23.17,9.333,7.155,9.336,7.16,23.333V888.9h44.34V785.569a89.814,89.814,0,0,0-3.5-25.334,55.759,55.759,0,0,0-10.83-20.666,53.061,53.061,0,0,0-18.5-13.834q-11.175-5.163-26.51-5.166a63.4,63.4,0,0,0-26.5,6,46.4,46.4,0,0,0-20.84,18.666V724.9h-43v164h44.34V794.569Zm159.35-6.334a32.828,32.828,0,0,1,2.83-11.333,33.9,33.9,0,0,1,7.17-10.333,37.762,37.762,0,0,1,11.33-7.667,37.061,37.061,0,0,1,15.34-3,42.17,42.17,0,0,1,16.17,2.833,34.524,34.524,0,0,1,11.33,7.334,28.624,28.624,0,0,1,6.67,10.333,40.315,40.315,0,0,1,2.5,11.833h-73.34Zm77.67,42.667a39.766,39.766,0,0,1-12.83,18q-8.835,7-24.5,7a43.033,43.033,0,0,1-15.67-2.833,40.638,40.638,0,0,1-12.84-7.834,41.454,41.454,0,0,1-9-11.833,35.366,35.366,0,0,1-3.83-14.833H1346q0-.664.33-4.834t0.33-8.833q0-39.665-21.33-62.333T1265.65,719.9a77.481,77.481,0,0,0-30.33,6.167,79.981,79.981,0,0,0-25.84,17.333,83.126,83.126,0,0,0-17.84,27.167,91.977,91.977,0,0,0-6.66,35.666q0,20.673,6.83,37a82.124,82.124,0,0,0,18.5,27.667,78.2,78.2,0,0,0,27.01,17.167,90.229,90.229,0,0,0,32.33,5.833,86.679,86.679,0,0,0,27.51-4.167,76.235,76.235,0,0,0,21.83-11.166,69.947,69.947,0,0,0,15.84-16.5,68.323,68.323,0,0,0,9.5-20.167Zm151.02-106.667c-1.78-.218-3.5-0.385-5.17-0.5s-3.39-.166-5.16-0.166a78.36,78.36,0,0,0-11.84,1,57.108,57.108,0,0,0-13,3.666,43.751,43.751,0,0,0-12.34,7.834,39.082,39.082,0,0,0-9.5,13.166V724.9h-43v164h44.34v-75q0-13.327,3.5-22.167a38.479,38.479,0,0,1,9.17-14.166,33.258,33.258,0,0,1,13.33-7.667,55.91,55.91,0,0,1,16.34-2.333,68.172,68.172,0,0,1,13.33,1.333V724.235Z" transform="translate(-297.219 -643.562)"/>
</svg>
