<?xml version="1.0" encoding="UTF-8" standalone="no"?>
<svg width="163px" height="149px" viewBox="0 0 163 149" version="1.1" xmlns="http://www.w3.org/2000/svg" xmlns:xlink="http://www.w3.org/1999/xlink">
    <!-- Generator: Sketch 39.1 (31720) - http://www.bohemiancoding.com/sketch -->
    <title>M</title>
    <desc>Created with Sketch.</desc>
    <defs></defs>
    <g id="Website" stroke="none" stroke-width="1" fill="none" fill-rule="evenodd">
        <g id="Manifesto" transform="translate(-313.000000, -2116.000000)" fill="#FFFFFF">
            <g transform="translate(100.000000, 1038.000000)" id="Letters">
                <g transform="translate(213.000000, 0.000000)">
                    <path d="M0.433381742,1220.22781 L25.0962994,1081.14512 C25.3658408,1079.05618 26.6124513,1078.01172 28.8361681,1078.01172 L32.1717266,1078.01172 C33.7889752,1078.01172 34.9345091,1078.68556 35.6083627,1080.03327 L81.1943293,1177.77524 L81.8007945,1177.77524 L127.386761,1080.03327 C128.060615,1078.68556 129.206149,1078.01172 130.823397,1078.01172 L134.158956,1078.01172 C136.382673,1078.01172 137.629283,1079.05618 137.898824,1081.14512 L162.359587,1220.22781 C162.426972,1220.63212 162.460665,1221.00273 162.460665,1221.33966 C162.460665,1222.21567 162.224819,1222.99059 161.753122,1223.66444 C161.079268,1224.54045 160.034811,1224.97845 158.619718,1224.97845 L139.819298,1224.97845 C138.943288,1224.97845 138.11783,1224.64153 137.342898,1223.96767 C136.567966,1223.29382 136.07943,1222.58628 135.877274,1221.84505 L123.646892,1143.40888 L123.040427,1143.40888 L86.7535935,1224.77629 C86.281896,1226.25877 85.10267,1227 83.2158799,1227 L79.5770888,1227 C77.9598402,1227 76.7806141,1226.25877 76.0393752,1224.77629 L39.3482313,1143.40888 L38.7417661,1143.40888 L26.7135399,1221.84505 C26.5787692,1222.58628 26.1407709,1223.29382 25.399532,1223.96767 C24.6582931,1224.64153 23.8496809,1224.97845 22.9736712,1224.97845 L4.37540547,1224.97845 C3.02769831,1224.97845 1.98324093,1224.57414 1.24200199,1223.76552 C0.635533772,1223.09167 0.33230421,1222.21567 0.33230421,1221.1375 C0.33230421,1220.86796 0.365996384,1220.56473 0.433381742,1220.22781 L0.433381742,1220.22781 Z" id="M"></path>
                </g>
            </g>
        </g>
    </g>
</svg>